<?xml version="1.0" encoding="UTF-8" standalone="no"?>
<!DOCTYPE svg PUBLIC "-//W3C//DTD SVG 1.1//EN"
 "http://www.w3.org/Graphics/SVG/1.1/DTD/svg11.dtd">
<!-- Generated by graphviz version 2.38.0 (20140413.2041)
 -->
<!-- Title: G Pages: 1 -->
<svg width="443pt" height="193pt"
 viewBox="0.00 0.00 442.98 193.09" xmlns="http://www.w3.org/2000/svg" xmlns:xlink="http://www.w3.org/1999/xlink">
<g id="graph0" class="graph" transform="scale(1 1) rotate(0) translate(4 189.095)">
<title>G</title>
<polygon fill="white" stroke="none" points="-4,4 -4,-189.095 438.979,-189.095 438.979,4 -4,4"/>
<!-- end -->
<g id="node1" class="node"><title>end</title>
<ellipse fill="greenyellow" stroke="black" cx="406.931" cy="-122.648" rx="24.089" ry="24.089"/>
<ellipse fill="none" stroke="black" cx="406.931" cy="-122.648" rx="28.0958" ry="28.0958"/>
<text text-anchor="middle" x="406.931" y="-118.948" font-family="Times New Roman,serif" font-size="14.00">end</text>
</g>
<!-- end&#45;&gt;end -->
<g id="edge12" class="edge"><title>end&#45;&gt;end</title>
<path fill="none" stroke="black" d="M395.78,-148.684C395.011,-159.514 398.728,-168.696 406.931,-168.696 412.315,-168.696 415.766,-164.742 417.285,-158.962"/>
<polygon fill="black" stroke="black" points="420.799,-158.924 418.082,-148.684 413.82,-158.383 420.799,-158.924"/>
<text text-anchor="middle" x="406.931" y="-172.496" font-family="Times New Roman,serif" font-size="14.00">any</text>
</g>
<!-- before -->
<g id="node2" class="node"><title>before</title>
<ellipse fill="lightblue" stroke="black" cx="34.4469" cy="-84.6476" rx="34.394" ry="34.394"/>
<text text-anchor="middle" x="34.4469" y="-80.9476" font-family="Times New Roman,serif" font-size="14.00">before</text>
</g>
<!-- before&#45;&gt;end -->
<g id="edge4" class="edge"><title>before&#45;&gt;end</title>
<path fill="none" stroke="black" d="M59.2962,-108.522C77.8608,-125.317 105.219,-146.386 133.894,-155.648 215.979,-182.16 318.252,-154.563 370.939,-136.204"/>
<polygon fill="black" stroke="black" points="372.254,-139.452 380.49,-132.787 369.895,-132.861 372.254,-139.452"/>
<text text-anchor="middle" x="229.588" y="-169.448" font-family="Times New Roman,serif" font-size="14.00">EOF</text>
</g>
<!-- before&#45;&gt;before -->
<g id="edge1" class="edge"><title>before&#45;&gt;before</title>
<path fill="none" stroke="black" d="M28.2689,-118.697C28.4237,-129.023 30.4831,-137.095 34.4469,-137.095 36.9863,-137.095 38.744,-133.782 39.7202,-128.686"/>
<polygon fill="black" stroke="black" points="43.2085,-128.972 40.625,-118.697 36.2371,-128.34 43.2085,-128.972"/>
<text text-anchor="middle" x="34.4469" y="-140.895" font-family="Times New Roman,serif" font-size="14.00">&#39; &#39;</text>
</g>
<!-- before&#45;&gt;before -->
<g id="edge2" class="edge"><title>before&#45;&gt;before</title>
<path fill="none" stroke="black" d="M22.8454,-117.257C20.2673,-136.749 24.1344,-155.095 34.4469,-155.095 42.9064,-155.095 47.0288,-142.75 46.814,-127.554"/>
<polygon fill="black" stroke="black" points="50.2803,-126.97 46.0485,-117.257 43.2996,-127.489 50.2803,-126.97"/>
<text text-anchor="middle" x="34.4469" y="-158.895" font-family="Times New Roman,serif" font-size="14.00">\n</text>
</g>
<!-- inside -->
<g id="node3" class="node"><title>inside</title>
<ellipse fill="orchid" stroke="black" cx="165.741" cy="-81.6476" rx="31.6951" ry="31.6951"/>
<text text-anchor="middle" x="165.741" y="-77.9476" font-family="Times New Roman,serif" font-size="14.00">inside</text>
</g>
<!-- before&#45;&gt;inside -->
<g id="edge3" class="edge"><title>before&#45;&gt;inside</title>
<path fill="none" stroke="black" d="M69.0799,-83.8673C85.562,-83.4848 105.569,-83.0206 123.017,-82.6158"/>
<polygon fill="black" stroke="black" points="123.579,-86.1037 133.495,-82.3726 123.417,-79.1056 123.579,-86.1037"/>
<text text-anchor="middle" x="101.394" y="-87.4476" font-family="Times New Roman,serif" font-size="14.00">other</text>
</g>
<!-- inside&#45;&gt;end -->
<g id="edge8" class="edge"><title>inside&#45;&gt;end</title>
<path fill="none" stroke="black" d="M197.521,-86.9237C241.393,-94.4438 321.793,-108.225 368.876,-116.296"/>
<polygon fill="black" stroke="black" points="368.509,-119.784 378.956,-118.024 369.691,-112.885 368.509,-119.784"/>
<text text-anchor="middle" x="288.236" y="-111.448" font-family="Times New Roman,serif" font-size="14.00">EOF</text>
</g>
<!-- inside&#45;&gt;before -->
<g id="edge6" class="edge"><title>inside&#45;&gt;before</title>
<path fill="none" stroke="black" d="M135.973,-69.8534C129.476,-67.694 122.534,-65.7701 115.894,-64.6476 103.185,-62.4994 99.5619,-62.2719 86.8939,-64.6476 83.2412,-65.3327 79.5145,-66.2691 75.8201,-67.3651"/>
<polygon fill="black" stroke="black" points="74.569,-64.0927 66.1892,-70.5757 76.7828,-70.7335 74.569,-64.0927"/>
<text text-anchor="middle" x="101.394" y="-68.4476" font-family="Times New Roman,serif" font-size="14.00">\n</text>
</g>
<!-- inside&#45;&gt;inside -->
<g id="edge7" class="edge"><title>inside&#45;&gt;inside</title>
<path fill="none" stroke="black" d="M154.142,-111.329C153.761,-122.39 157.628,-131.495 165.741,-131.495 171.192,-131.495 174.726,-127.385 176.343,-121.333"/>
<polygon fill="black" stroke="black" points="179.831,-121.627 177.341,-111.329 172.866,-120.932 179.831,-121.627"/>
<text text-anchor="middle" x="165.741" y="-135.295" font-family="Times New Roman,serif" font-size="14.00">other</text>
</g>
<!-- after -->
<g id="node4" class="node"><title>after</title>
<ellipse fill="cyan" stroke="black" cx="288.236" cy="-26.6476" rx="26.7961" ry="26.7961"/>
<text text-anchor="middle" x="288.236" y="-22.9476" font-family="Times New Roman,serif" font-size="14.00">after</text>
</g>
<!-- inside&#45;&gt;after -->
<g id="edge5" class="edge"><title>inside&#45;&gt;after</title>
<path fill="none" stroke="black" d="M194.992,-68.7526C212.762,-60.6413 235.764,-50.1418 254.353,-41.6569"/>
<polygon fill="black" stroke="black" points="255.977,-44.7632 263.621,-37.4267 253.07,-38.3952 255.977,-44.7632"/>
<text text-anchor="middle" x="229.588" y="-63.4476" font-family="Times New Roman,serif" font-size="14.00">&#39; &#39;</text>
</g>
<!-- after&#45;&gt;end -->
<g id="edge11" class="edge"><title>after&#45;&gt;end</title>
<path fill="none" stroke="black" d="M309.297,-43.1506C327.821,-58.3898 355.564,-81.2125 376.578,-98.5003"/>
<polygon fill="black" stroke="black" points="374.608,-101.411 384.554,-105.062 379.055,-96.0056 374.608,-101.411"/>
<text text-anchor="middle" x="346.884" y="-87.4476" font-family="Times New Roman,serif" font-size="14.00">EOF</text>
</g>
<!-- after&#45;&gt;before -->
<g id="edge10" class="edge"><title>after&#45;&gt;before</title>
<path fill="none" stroke="black" d="M261.715,-22.2985C230.821,-17.9792 177.513,-13.5778 133.894,-25.6476 111.119,-31.9497 88.3179,-45.0746 70.4026,-57.3485"/>
<polygon fill="black" stroke="black" points="68.1679,-54.6419 62.0218,-63.2718 72.2082,-60.3582 68.1679,-54.6419"/>
<text text-anchor="middle" x="165.741" y="-29.4476" font-family="Times New Roman,serif" font-size="14.00">\n</text>
</g>
<!-- after&#45;&gt;after -->
<g id="edge9" class="edge"><title>after&#45;&gt;after</title>
<path fill="none" stroke="black" d="M277.491,-51.4409C276.611,-62.1372 280.193,-71.2953 288.236,-71.2953 293.514,-71.2953 296.871,-67.3512 298.306,-61.6166"/>
<polygon fill="black" stroke="black" points="301.812,-61.6504 298.981,-51.4409 294.827,-61.1875 301.812,-61.6504"/>
<text text-anchor="middle" x="288.236" y="-75.0953" font-family="Times New Roman,serif" font-size="14.00">other</text>
</g>
</g>
</svg>
