<?xml version="1.0" encoding="UTF-8" standalone="no"?>
<!DOCTYPE svg PUBLIC "-//W3C//DTD SVG 1.1//EN"
 "http://www.w3.org/Graphics/SVG/1.1/DTD/svg11.dtd">
<!-- Generated by graphviz version 2.38.0 (20140413.2041)
 -->
<!-- Title: G Pages: 1 -->
<svg width="530pt" height="727pt"
 viewBox="0.00 0.00 530.09 727.09" xmlns="http://www.w3.org/2000/svg" xmlns:xlink="http://www.w3.org/1999/xlink">
<g id="graph0" class="graph" transform="scale(1 1) rotate(0) translate(4 723.09)">
<title>G</title>
<polygon fill="white" stroke="none" points="-4,4 -4,-723.09 526.087,-723.09 526.087,4 -4,4"/>
<!-- initialState -->
<g id="node1" class="node"><title>initialState</title>
<ellipse fill="none" stroke="black" cx="98" cy="-327.146" rx="47.3916" ry="47.3916"/>
<text text-anchor="middle" x="98" y="-323.446" font-family="Times New Roman,serif" font-size="14.00">initialState</text>
</g>
<!-- initialState&#45;&gt;initialState -->
<g id="edge1" class="edge"><title>initialState&#45;&gt;initialState</title>
<path fill="none" stroke="red" d="M64.5192,-360.819C59.8866,-377.612 71.0469,-392.592 98,-392.592 119.268,-392.592 130.702,-383.265 132.304,-371.08"/>
<polygon fill="red" stroke="red" points="135.77,-370.507 131.481,-360.819 128.792,-371.067 135.77,-370.507"/>
<text text-anchor="start" x="67" y="-578.392" font-family="Times New Roman,serif" font-weight="bold" font-size="14.00" fill="red">DIGIT_0</text>
<text text-anchor="start" x="125" y="-578.392" font-family="Times New Roman,serif" font-size="14.00" fill="red">,</text>
<text text-anchor="start" x="57.5" y="-564.392" font-family="Times New Roman,serif" font-size="14.00" fill="red"> EVALUATE,</text>
<text text-anchor="start" x="49" y="-550.392" font-family="Times New Roman,serif" font-size="14.00" fill="red"> BACK_SPACE,</text>
<text text-anchor="start" x="62.5" y="-536.392" font-family="Times New Roman,serif" font-size="14.00" fill="red"> PERCENT,</text>
<text text-anchor="start" x="44" y="-522.392" font-family="Times New Roman,serif" font-size="14.00" fill="red"> SQUARE_ROOT</text>
<text text-anchor="start" x="64.5" y="-508.392" font-family="Times New Roman,serif" font-size="14.00" fill="red"> INVERSE,</text>
<text text-anchor="start" x="22.5" y="-494.392" font-family="Times New Roman,serif" font-size="14.00" fill="red"> CLEAR_EVALUATION,</text>
<text text-anchor="start" x="27" y="-480.392" font-family="Times New Roman,serif" font-size="14.00" fill="red"> MEMORY_RESTORE,</text>
<text text-anchor="start" x="36" y="-466.392" font-family="Times New Roman,serif" font-size="14.00" fill="red"> MEMORY_STORE,</text>
<text text-anchor="start" x="36" y="-452.392" font-family="Times New Roman,serif" font-size="14.00" fill="red"> MEMORY_CLEAR,</text>
<text text-anchor="start" x="42" y="-438.392" font-family="Times New Roman,serif" font-size="14.00" fill="red"> MEMORY_PLUS,</text>
<text text-anchor="start" x="37" y="-424.392" font-family="Times New Roman,serif" font-size="14.00" fill="red"> MEMORY_MINUS,</text>
<text text-anchor="start" x="71" y="-410.392" font-family="Times New Roman,serif" font-size="14.00" fill="red"> CLEAR,</text>
<text text-anchor="start" x="64.5" y="-396.392" font-family="Times New Roman,serif" font-size="14.00" fill="red"> REVERSE</text>
</g>
<!-- afterDotInLArg -->
<g id="node2" class="node"><title>afterDotInLArg</title>
<ellipse fill="none" stroke="black" cx="446.043" cy="-652.146" rx="66.8882" ry="66.8882"/>
<text text-anchor="middle" x="446.043" y="-648.446" font-family="Times New Roman,serif" font-size="14.00">afterDotInLArg</text>
</g>
<!-- initialState&#45;&gt;afterDotInLArg -->
<g id="edge3" class="edge"><title>initialState&#45;&gt;afterDotInLArg</title>
<path fill="none" stroke="black" d="M119.406,-369.539C139.562,-408.333 173.234,-465.684 214,-506.146 261.556,-553.347 326.947,-592.898 376.027,-618.878"/>
<polygon fill="black" stroke="black" points="374.511,-622.034 384.994,-623.569 377.756,-615.832 374.511,-622.034"/>
<text text-anchor="middle" x="283" y="-607.946" font-family="Times New Roman,serif" font-size="14.00">DOT</text>
</g>
<!-- afterSingSelection -->
<g id="node3" class="node"><title>afterSingSelection</title>
<ellipse fill="none" stroke="black" cx="446.043" cy="-491.146" rx="76.0865" ry="76.0865"/>
<text text-anchor="middle" x="446.043" y="-487.446" font-family="Times New Roman,serif" font-size="14.00">afterSingSelection</text>
</g>
<!-- initialState&#45;&gt;afterSingSelection -->
<g id="edge4" class="edge"><title>initialState&#45;&gt;afterSingSelection</title>
<path fill="none" stroke="black" d="M141.086,-347.092C197.282,-373.724 297.856,-421.389 367.857,-454.565"/>
<polygon fill="black" stroke="black" points="366.558,-457.823 377.094,-458.943 369.556,-451.497 366.558,-457.823"/>
<text text-anchor="middle" x="283" y="-490.946" font-family="Times New Roman,serif" font-size="14.00">PLUS,</text>
<text text-anchor="middle" x="283" y="-475.946" font-family="Times New Roman,serif" font-size="14.00"> MINUS,</text>
<text text-anchor="middle" x="283" y="-460.946" font-family="Times New Roman,serif" font-size="14.00"> MULTIPLY,</text>
<text text-anchor="middle" x="283" y="-445.946" font-family="Times New Roman,serif" font-size="14.00"> DIVIDE</text>
</g>
<!-- afterDigitInLArg -->
<g id="node4" class="node"><title>afterDigitInLArg</title>
<ellipse fill="none" stroke="black" cx="446.043" cy="-327.146" rx="70.3881" ry="70.3881"/>
<text text-anchor="middle" x="446.043" y="-323.446" font-family="Times New Roman,serif" font-size="14.00">afterDigitInLArg</text>
</g>
<!-- initialState&#45;&gt;afterDigitInLArg -->
<g id="edge2" class="edge"><title>initialState&#45;&gt;afterDigitInLArg</title>
<path fill="none" stroke="red" d="M145.669,-327.146C201.909,-327.146 297.309,-327.146 365.299,-327.146"/>
<polygon fill="red" stroke="red" points="365.545,-330.646 375.545,-327.146 365.545,-323.646 365.545,-330.646"/>
<text text-anchor="start" x="223.5" y="-331.946" font-family="Times New Roman,serif" font-weight="bold" font-size="14.00" fill="red">DIGIT_0</text>
<text text-anchor="start" x="281.5" y="-331.946" font-family="Times New Roman,serif" font-size="14.00" fill="red">..DIGIT_9</text>
</g>
<!-- afterEvaluation -->
<g id="node5" class="node"><title>afterEvaluation</title>
<ellipse fill="none" stroke="black" cx="446.043" cy="-174.146" rx="64.189" ry="64.189"/>
<text text-anchor="middle" x="446.043" y="-170.446" font-family="Times New Roman,serif" font-size="14.00">afterEvaluation</text>
</g>
<!-- initialState&#45;&gt;afterEvaluation -->
<g id="edge5" class="edge"><title>initialState&#45;&gt;afterEvaluation</title>
<path fill="none" stroke="black" d="M141.779,-308.232C200.792,-282.14 307.784,-234.834 377.617,-203.958"/>
<polygon fill="black" stroke="black" points="379.06,-207.147 386.79,-199.902 376.229,-200.745 379.06,-207.147"/>
<text text-anchor="middle" x="283" y="-277.946" font-family="Times New Roman,serif" font-size="14.00">EVALUATE</text>
</g>
<!-- errorState -->
<g id="node6" class="node"><title>errorState</title>
<ellipse fill="none" stroke="black" cx="446.043" cy="-46.1459" rx="46.2923" ry="46.2923"/>
<text text-anchor="middle" x="446.043" y="-42.4459" font-family="Times New Roman,serif" font-size="14.00">errorState</text>
</g>
<!-- initialState&#45;&gt;errorState -->
<g id="edge6" class="edge"><title>initialState&#45;&gt;errorState</title>
<path fill="none" stroke="black" d="M119.349,-284.473C139.133,-246.697 172.273,-192.124 214,-156.146 266.835,-110.59 341.784,-79.5337 391.839,-62.3294"/>
<polygon fill="black" stroke="black" points="393.145,-65.5828 401.504,-59.0731 390.91,-58.9492 393.145,-65.5828"/>
<text text-anchor="middle" x="283" y="-204.946" font-family="Times New Roman,serif" font-size="14.00">EVALUATE,</text>
<text text-anchor="middle" x="283" y="-189.946" font-family="Times New Roman,serif" font-size="14.00"> SQUARE_ROOT,</text>
<text text-anchor="middle" x="283" y="-174.946" font-family="Times New Roman,serif" font-size="14.00"> INVERSE,</text>
<text text-anchor="middle" x="283" y="-159.946" font-family="Times New Roman,serif" font-size="14.00"> MEMORY_RESTORE</text>
</g>
</g>
</svg>
