<?xml version="1.0" encoding="UTF-8" standalone="no"?>
<!DOCTYPE svg PUBLIC "-//W3C//DTD SVG 1.1//EN"
 "http://www.w3.org/Graphics/SVG/1.1/DTD/svg11.dtd">
<!-- Generated by graphviz version 2.38.0 (20140413.2041)
 -->
<!-- Title: G Pages: 1 -->
<svg width="252pt" height="48pt"
 viewBox="0.00 0.00 251.62 48.30" xmlns="http://www.w3.org/2000/svg" xmlns:xlink="http://www.w3.org/1999/xlink">
<g id="graph0" class="graph" transform="scale(1 1) rotate(0) translate(4 44.3013)">
<title>G</title>
<polygon fill="white" stroke="none" points="-4,4 -4,-44.3013 247.619,-44.3013 247.619,4 -4,4"/>
<!-- on -->
<g id="node1" class="node"><title>on</title>
<ellipse fill="none" stroke="black" cx="216.619" cy="-20.1506" rx="27" ry="18"/>
<text text-anchor="middle" x="216.619" y="-16.4506" font-family="Times New Roman,serif" font-size="14.00">on</text>
</g>
<!-- off -->
<g id="node2" class="node"><title>off</title>
<ellipse fill="none" stroke="black" cx="27" cy="-20.1506" rx="27" ry="18"/>
<text text-anchor="middle" x="27" y="-16.4506" font-family="Times New Roman,serif" font-size="14.00">off</text>
</g>
<!-- on&#45;&gt;off -->
<g id="edge1" class="edge"><title>on&#45;&gt;off</title>
<path fill="none" stroke="black" d="M190.253,-15.3057C157.281,-12.989 100.66,-12.7853 63.5269,-14.6943"/>
<polygon fill="black" stroke="black" points="62.9125,-11.225 53.1417,-15.3215 63.3345,-18.2122 62.9125,-11.225"/>
<text text-anchor="middle" x="105.39" y="-3.8" font-family="Times New Roman,serif" font-size="14.00">turn off</text>
</g>
<!-- off&#45;&gt;on -->
<g id="edge2" class="edge"><title>off&#45;&gt;on</title>
<path fill="none" stroke="black" d="M53.3656,-24.9956C86.338,-27.3122 142.959,-27.516 180.092,-25.6069"/>
<polygon fill="black" stroke="black" points="180.706,-29.0763 190.477,-24.9798 180.284,-22.089 180.706,-29.0763"/>
<text text-anchor="middle" x="96.7286" y="-29.1013" font-family="Times New Roman,serif" font-size="14.00">turn on</text>
</g>
</g>
</svg>
